<?xml version="1.0" encoding="UTF-8"?><svg id="b" xmlns="http://www.w3.org/2000/svg" viewBox="0 0 126 126"><g id="c"><path d="m88.33,88.61c-6.49,6.49-15.43,10.49-25.33,10.49s-18.84-4-25.33-10.49c-6.48-6.49-10.49-15.43-10.49-25.33s4.01-18.84,10.49-25.33c6.49-6.49,15.43-10.49,25.33-10.49s18.84,4,25.33,10.49c6.49,6.49,10.49,15.43,10.49,25.33s-4,18.84-10.49,25.33Zm15-27.91c-1.28-20.36-17.63-36.62-38.03-37.77V0h-4.6v22.94c-20.4,1.15-36.74,17.41-38.03,37.77H0v4.6h22.64c1.01,20.62,17.48,37.17,38.07,38.33v22.37h4.6v-22.37c20.59-1.16,37.05-17.71,38.07-38.33h22.64v-4.6h-22.68Z" fill="#1d1d1b"/></g></svg>