<svg width="56" height="69" viewBox="0 0 56 69" fill="none" xmlns="http://www.w3.org/2000/svg">
<g clip-path="url(#clip0_597_3)">
<g clip-path="url(#clip1_597_3)">
<path d="M13.2386 47.6166C12.8435 47.6166 12.5249 47.4965 12.2834 47.2557C12.0418 47.0156 11.9211 46.6982 11.9211 46.3049V22.6955C11.9211 22.3018 12.0418 21.9851 12.2834 21.7447C12.5249 21.5042 12.8435 21.3838 13.2386 21.3838H23.8467C24.681 21.3838 25.0986 21.7995 25.0986 22.6299V22.6955C25.0986 23.067 25.2248 23.3786 25.4775 23.6301C25.7298 23.8816 26.0428 24.0072 26.4165 24.0072H26.4823C27.3166 24.0072 27.7343 24.4229 27.7343 25.2533V30.6308C27.7343 31.4616 27.3166 31.877 26.4823 31.877H26.4165C26.0432 31.877 25.7302 32.0001 25.4775 32.2458C25.2248 32.4918 25.0986 32.806 25.0986 33.1887C25.0986 33.5713 25.2248 33.8718 25.4775 34.1233C25.7298 34.3748 26.0428 34.5003 26.4165 34.5003H26.4823C27.3166 34.5003 27.7343 34.9161 27.7343 35.7465V43.7477C27.7343 44.5785 27.3166 44.9939 26.4823 44.9939H26.4165C26.0432 44.9939 25.7302 45.1167 25.4775 45.3627C25.2248 45.6087 25.0986 45.923 25.0986 46.3052V46.3708C25.0986 47.2015 24.681 47.6169 23.8467 47.6169H13.2386V47.6166ZM25.0986 25.3189C25.0986 24.9363 24.9749 24.6223 24.7281 24.376C24.481 24.13 24.1652 24.0072 23.7808 24.0072H15.8743C15.5006 24.0072 15.1876 24.1303 14.9353 24.376C14.6826 24.622 14.5564 24.9363 14.5564 25.3189V30.5653C14.5564 30.9372 14.6826 31.2487 14.9353 31.4999C15.1876 31.7514 15.5006 31.877 15.8743 31.877H23.7808C24.1652 31.877 24.4806 31.7514 24.7281 31.4999C24.9752 31.2487 25.0986 30.9372 25.0986 30.5653V25.3189ZM25.0986 35.812C25.0986 35.4294 24.9749 35.1151 24.7281 34.8691C24.481 34.6232 24.1652 34.5003 23.7808 34.5003H15.8743C15.5006 34.5003 15.1876 34.6235 14.9353 34.8691C14.6826 35.1151 14.5564 35.4294 14.5564 35.812V43.6818C14.5564 44.0537 14.6826 44.3649 14.9353 44.6164C15.1876 44.8679 15.5006 44.9935 15.8743 44.9935H23.7808C24.1652 44.9935 24.4806 44.8679 24.7281 44.6164C24.9752 44.3649 25.0986 44.0537 25.0986 43.6818V35.812Z" fill="black"/>
<path d="M35.6304 35.8113C35.6304 36.1833 35.7565 36.4944 36.0092 36.7459C36.2619 36.9975 36.5745 37.123 36.9482 37.123C37.3218 37.123 37.648 36.9975 37.8951 36.7459C38.1423 36.4944 38.2657 36.1833 38.2657 35.8113V30.499C38.2657 29.6686 38.683 29.2529 39.5176 29.2529H39.5835C39.9679 29.2529 40.2833 29.1273 40.5308 28.8758C40.7779 28.6246 40.9013 28.3131 40.9013 27.9412V22.6289C40.9013 21.7981 41.3183 21.3828 42.1533 21.3828H42.285C43.1193 21.3828 43.5369 21.7981 43.5369 22.6289V28.0064C43.5369 28.8372 43.1193 29.2525 42.285 29.2525H42.2191C41.8458 29.2525 41.5328 29.3757 41.2801 29.6214C41.0275 29.8673 40.9013 30.1816 40.9013 30.5642V35.8765C40.9013 36.7073 40.4836 37.1227 39.6493 37.1227H39.5835C39.2102 37.1227 38.8972 37.2455 38.6445 37.4915C38.3915 37.7375 38.2653 38.0518 38.2653 38.434V43.7463C38.2653 44.5771 37.848 44.9925 37.0134 44.9925H36.9475C36.5738 44.9925 36.2612 45.1156 36.0085 45.3613C35.7558 45.6073 35.6297 45.9216 35.6297 46.3042V46.3697C35.6297 47.2005 35.2124 47.6159 34.3777 47.6159H31.6104C30.7757 47.6159 30.3584 47.2001 30.3584 46.3697V46.2386C30.3584 45.4079 30.7754 44.9925 31.6104 44.9925H34.3119C34.6962 44.9925 35.0117 44.8666 35.2588 44.6154C35.5059 44.3639 35.6293 44.0524 35.6293 43.6808V38.434C35.6293 38.0514 35.5059 37.7375 35.2588 37.4915C35.0117 37.2455 34.6959 37.1227 34.3119 37.1227H34.246C33.4114 37.1227 32.994 36.7073 32.994 35.8765V30.5642C32.994 30.1816 32.8703 29.8677 32.6235 29.6214C32.3764 29.3754 32.0606 29.2525 31.6762 29.2525H31.6104C30.7757 29.2525 30.3584 28.8375 30.3584 28.0064V22.6289C30.3584 21.7981 30.7754 21.3828 31.6104 21.3828H31.7421C32.5767 21.3828 32.994 21.7981 32.994 22.6289V27.9412C32.994 28.3128 33.1202 28.6243 33.3729 28.8758C33.6252 29.1273 33.9382 29.2529 34.3119 29.2529H34.3777C35.2124 29.2529 35.6297 29.6686 35.6297 30.499V35.8113H35.6304Z" fill="black"/>
<path d="M6.58563 58.4775C6.58563 57.5288 6.32567 56.7456 5.80575 56.127C5.28549 55.5091 4.50561 55.2 3.46612 55.2H3.29282C1.09737 55.2 0 54.1077 0 51.9225V17.0775C0 14.8926 1.09737 13.8 3.29282 13.8H3.46612C4.50561 13.8 5.28549 13.4916 5.80575 12.873C6.32567 12.2551 6.58563 11.4713 6.58563 10.5225V10.1772C6.58563 9.1425 6.9319 8.27966 7.62512 7.58966C8.31835 6.89966 9.18487 6.555 10.2247 6.555H10.5717C11.5249 6.555 12.3117 6.29625 12.9331 5.77841C13.5536 5.26091 13.8645 4.485 13.8645 3.44966V3.2775C13.8645 1.09262 14.9619 0 17.1573 0H38.3006C40.4954 0 41.5935 1.09262 41.5935 3.2775V3.44966C41.5935 4.485 41.9033 5.26091 42.5248 5.77841C43.1456 6.29625 43.9331 6.555 44.8863 6.555H45.2332C46.2727 6.555 47.1396 6.89966 47.8328 7.58966C48.526 8.27966 48.8723 9.14216 48.8723 10.1772V10.5225C48.8723 11.4713 49.1323 12.2547 49.6522 12.873C50.1725 13.4916 50.9523 13.8 51.9918 13.8H52.1651C54.3602 13.8 55.4579 14.8926 55.4579 17.0775V51.9225C55.4579 54.1077 54.3602 55.2 52.1651 55.2H51.9918C50.9523 55.2 50.1725 55.5091 49.6522 56.127C49.1323 56.7456 48.8723 57.5288 48.8723 58.4775V58.8222C48.8723 59.8575 48.526 60.72 47.8328 61.41C47.1396 62.0997 46.2731 62.4447 45.2332 62.4447H44.8863C43.9331 62.4447 43.1459 62.7034 42.5248 63.2209C41.9033 63.7384 41.5935 64.515 41.5935 65.5497V65.7222C41.5935 67.9074 40.4954 68.9997 38.3006 68.9997H17.1573C14.9619 68.9997 13.8645 67.9074 13.8645 65.7222V65.5497C13.8645 64.515 13.5536 63.7384 12.9331 63.2209C12.3117 62.7034 11.5249 62.4447 10.5717 62.4447H10.2247C9.18522 62.4447 8.31835 62.0993 7.62512 61.41C6.9319 60.72 6.58563 59.8575 6.58563 58.8222V58.4775ZM13.4212 60.2429C13.4212 61.2475 13.6967 62.0769 14.2468 62.7307C14.7969 63.3855 15.6222 63.7118 16.723 63.7118H38.7343C39.8351 63.7118 40.6604 63.3851 41.2104 62.7307C41.7612 62.0769 42.0361 61.2475 42.0361 60.2429V59.8779C42.0361 58.7825 42.4028 57.8696 43.1366 57.1392C43.8704 56.4089 44.7875 56.0435 45.888 56.0435H46.255C47.264 56.0435 48.0962 55.7696 48.7538 55.2221C49.4109 54.6746 49.7402 53.8531 49.7402 52.7574V16.2426C49.7402 15.1469 49.4113 14.3254 48.7538 13.7779C48.0959 13.2297 47.2637 12.9561 46.255 12.9561H45.888C44.7875 12.9561 43.8704 12.5911 43.1366 11.8608C42.4028 11.1304 42.0361 10.2175 42.0361 9.12215V8.75679C42.0361 7.7525 41.7609 6.92415 41.2104 6.269C40.6604 5.61522 39.8351 5.28782 38.7343 5.28782H16.7233C15.6225 5.28782 14.7972 5.61522 14.2471 6.269C13.6971 6.92415 13.4215 7.7525 13.4215 8.75679V9.12215C13.4215 10.2175 13.0548 11.1304 12.321 11.8608C11.5872 12.5911 10.6701 12.9561 9.56961 12.9561H9.20255C8.19356 12.9561 7.36031 13.2301 6.70383 13.7779C6.04596 14.3254 5.71737 15.1469 5.71737 16.2426V52.7574C5.71737 53.8531 6.04596 54.6746 6.70383 55.2221C7.36066 55.7696 8.19391 56.0435 9.20255 56.0435H9.56961C10.6701 56.0435 11.5872 56.4089 12.321 57.1392C13.0548 57.8696 13.4215 58.7825 13.4215 59.8779V60.2429H13.4212Z" fill="black"/>
</g>
</g>
<defs>
<clipPath id="clip0_597_3">
<rect width="55.4579" height="69" fill="white"/>
</clipPath>
<clipPath id="clip1_597_3">
<rect width="55.4579" height="69" fill="white"/>
</clipPath>
</defs>
</svg>
